<svg xmlns="http://www.w3.org/2000/svg" width="52" height="52" viewBox="0 0 52 52">
    <defs>
        <filter id="zy56a1om4a">
            <feColorMatrix in="SourceGraphic" values="0 0 0 0 0.309804 0 0 0 0 0.372549 0 0 0 0 0.427451 0 0 0 0.240000 0"/>
        </filter>
    </defs>
    <g fill="none" fill-rule="evenodd">
        <g>
            <g>
                <g filter="url(#zy56a1om4a)" transform="translate(-932 -192) translate(930 190) translate(2 2)">
                    <path fill="#FFF" fill-opacity="0" d="M0 0H52V52H0z"/>
                    <g fill="#05D183" fill-rule="nonzero">
                        <path d="M43.172 0c1.735 0 3.147 1.37 3.215 3.088l.003.13v12.18c0 .808-.655 1.462-1.463 1.462-.775 0-1.41-.603-1.459-1.366l-.003-.096V3.218c0-.144-.103-.264-.24-.288l-.053-.005H3.218c-.144 0-.264.103-.288.24l-.005.053v12.18c0 .808-.655 1.462-1.462 1.462-.776 0-1.41-.603-1.46-1.366L0 15.398V3.218C0 1.484 1.371.07 3.088.003L3.218 0h39.954zM44.927 29.355c.776 0 1.41.603 1.46 1.366l.003.096v12.18c0 1.735-1.37 3.148-3.088 3.216l-.13.002H3.218c-1.734 0-3.148-1.37-3.215-3.088L0 42.997v-12.18c0-.807.655-1.462 1.463-1.462.775 0 1.41.603 1.459 1.366l.003.096v12.18c0 .144.103.264.24.289l.053.004h39.954c.144 0 .264-.103.288-.24l.005-.052v-12.18c0-.808.655-1.463 1.462-1.463z" transform="translate(2.6 3.25)"/>
                        <path d="M23.195 12.285c-5.977 0-10.822 4.846-10.822 10.823S17.218 33.93 23.195 33.93c5.977 0 10.823-4.845 10.823-10.822 0-5.977-4.846-10.823-10.823-10.823zm0 2.925c4.362 0 7.898 3.536 7.898 7.898 0 4.361-3.536 7.897-7.898 7.897-4.361 0-7.897-3.536-7.897-7.897 0-4.362 3.536-7.898 7.897-7.898z" transform="translate(2.6 3.25)"/>
                    </g>
                </g>
            </g>
        </g>
    </g>
</svg>
