<svg xmlns="http://www.w3.org/2000/svg" width="52" height="52" viewBox="0 0 52 52">
    <defs>
        <filter id="ebqp4ydv7a">
            <feColorMatrix in="SourceGraphic" values="0 0 0 0 0.309804 0 0 0 0 0.372549 0 0 0 0 0.427451 0 0 0 0.240000 0"/>
        </filter>
    </defs>
    <g fill="none" fill-rule="evenodd">
        <g>
            <g>
                <g filter="url(#ebqp4ydv7a)" transform="translate(-932 -104) translate(930 102) translate(2 2)">
                    <path fill="#FFF" fill-opacity="0" d="M0 0H52V52H0z"/>
                    <g fill="#05D183" fill-rule="nonzero">
                        <path d="M23.165 17.651c.775 0 1.41.604 1.459 1.367l.003.096v5.493c0 .808-.655 1.463-1.462 1.463-.776 0-1.41-.603-1.46-1.366l-.003-.097v-5.493c0-.808.655-1.463 1.463-1.463zM29.917 27.372c.556-.586 1.482-.609 2.067-.052.586.556.609 1.482.052 2.067-2.004 2.107-5.302 3.362-8.871 3.362-3.57 0-6.868-1.255-8.872-3.362-.557-.585-.533-1.51.052-2.067.585-.557 1.51-.534 2.068.052 1.418 1.491 3.944 2.452 6.752 2.452s5.333-.961 6.752-2.452zM14.39 13.47c.775 0 1.41.604 1.459 1.367l.003.096v2.195c0 .808-.655 1.462-1.462 1.462-.776 0-1.41-.603-1.46-1.366l-.003-.096v-2.195c0-.808.655-1.462 1.463-1.462zM31.94 13.47c.775 0 1.41.604 1.459 1.367l.003.096v2.195c0 .808-.655 1.462-1.462 1.462-.776 0-1.41-.603-1.46-1.366l-.003-.096v-2.195c0-.808.655-1.462 1.463-1.462zM9.577 0c.808 0 1.463.655 1.463 1.462 0 .776-.604 1.41-1.367 1.46l-.096.003H2.925v6.623c0 .775-.603 1.41-1.366 1.46l-.097.002c-.775 0-1.41-.603-1.459-1.366L0 9.548V1.463C0 .687.603.053 1.366.003L1.462 0h8.115zM44.928 0c.775 0 1.41.603 1.459 1.366l.003.096v8.086c0 .808-.655 1.462-1.462 1.462-.776 0-1.41-.603-1.46-1.366l-.003-.096V2.925h-6.653c-.775 0-1.41-.603-1.459-1.366l-.003-.097c0-.775.603-1.41 1.366-1.459L36.812 0h8.116zM1.462 35.205c.776 0 1.41.603 1.46 1.366l.003.096v6.622h6.652c.775 0 1.41.604 1.46 1.367l.003.096c0 .776-.604 1.41-1.367 1.46l-.096.003H1.463c-.776 0-1.41-.604-1.46-1.366L0 44.752v-8.085c0-.808.655-1.462 1.462-1.462zM44.928 35.205c.775 0 1.41.603 1.459 1.366l.003.096v8.085c0 .776-.603 1.41-1.366 1.46l-.096.003h-8.116c-.807 0-1.462-.655-1.462-1.463 0-.775.603-1.41 1.366-1.459l.096-.003h6.653v-6.623c0-.775.604-1.41 1.366-1.46l.097-.002z" transform="translate(2.6 2.6)"/>
                    </g>
                </g>
            </g>
        </g>
    </g>
</svg>
