<svg xmlns="http://www.w3.org/2000/svg" width="105" height="104" viewBox="0 0 105 104">
    <defs>
        <linearGradient id="s85i4vp62a" x1="81.994%" x2="18.006%" y1="-10.736%" y2="118.32%">
            <stop offset="0%" stop-color="#00FF42"/>
            <stop offset="100%" stop-color="#A3FF00"/>
        </linearGradient>
    </defs>
    <g fill="none" fill-rule="evenodd">
        <g>
            <g>
                <g transform="translate(-368 -5756) translate(241 5636) translate(127 120)">
                    <rect width="50.286" height="50" x=".5" fill="#05D686" opacity=".57" rx="4"/>
                    <rect width="50.286" height="50" x="54.214" fill="url(#s85i4vp62a)" opacity=".36" rx="4"/>
                    <rect width="50.286" height="50" x="54.214" y="54" fill="url(#s85i4vp62a)" opacity=".36" rx="4"/>
                    <rect width="50.286" height="50" x=".5" y="54" fill="url(#s85i4vp62a)" opacity=".36" rx="4"/>
                    <path fill="#FFF" fill-rule="nonzero" d="M36.691 17.047c.527-.447 1.315-.382 1.762.144.417.492.388 1.211-.045 1.668l-.1.094-16.5 14c-.473.402-1.164.392-1.625-.007l-.095-.091-7.5-8c-.472-.504-.447-1.295.057-1.767.47-.44 1.19-.448 1.668-.037l.099.094 6.685 7.132 15.594-13.23z"/>
                </g>
            </g>
        </g>
    </g>
</svg>
