<svg xmlns="http://www.w3.org/2000/svg" width="52" height="52" viewBox="0 0 52 52">
    <g fill="none" fill-rule="evenodd">
        <g>
            <g>
                <g>
                    <path fill="#FFF" fill-opacity="0" d="M0 0H52V52H0z" transform="translate(-552 -192) translate(550 190) translate(2 2)"/>
                    <g fill="#05D183" fill-rule="nonzero">
                        <path d="M39.68 0c1.526 0 2.77 1.207 2.83 2.718l.002.114V14.6c0 .71-.577 1.287-1.288 1.287-.682 0-1.24-.531-1.284-1.203l-.003-.084V2.832c0-.126-.091-.231-.211-.253l-.047-.004H9.242c-.127 0-.232.09-.253.211l-.005.046v11.893c0 .71-.576 1.287-1.287 1.287-.683 0-1.241-.53-1.285-1.202l-.002-.085V2.832c0-1.526 1.206-2.77 2.718-2.83L9.242 0h30.437zM7.697 19.354c.683 0 1.241.531 1.285 1.203l.003.084v18.546c0 .126.09.231.21.253l.047.004H39.68c.126 0 .231-.091.253-.211l.004-.046V20.71c0-.71.577-1.287 1.288-1.287.682 0 1.24.531 1.284 1.203l.003.084v18.476c0 1.525-1.207 2.77-2.718 2.83l-.114.002H9.242c-1.526 0-2.77-1.207-2.83-2.718l-.002-.114V20.64c0-.71.576-1.287 1.287-1.287z" transform="translate(-552 -192) translate(550 190) translate(2 2) translate(1.95 5.2)"/>
                        <path d="M47.634 19.229c.711 0 1.288.576 1.288 1.287 0 .683-.532 1.241-1.203 1.285l-.085.003H1.287c-.71 0-1.287-.577-1.287-1.288 0-.682.531-1.24 1.203-1.284l.084-.003h46.347zM34.736 26.313c.711 0 1.288.577 1.288 1.288 0 .682-.532 1.24-1.203 1.284l-.085.003H14.028c-.711 0-1.287-.576-1.287-1.287 0-.683.53-1.242 1.202-1.285l.085-.003h20.708zM29.805 32.23c.711 0 1.288.576 1.288 1.287 0 .683-.531 1.241-1.203 1.285l-.085.002H14.028c-.711 0-1.287-.576-1.287-1.287 0-.683.53-1.241 1.202-1.285l.085-.002h15.777z" transform="translate(-552 -192) translate(550 190) translate(2 2) translate(1.95 5.2)"/>
                    </g>
                </g>
            </g>
        </g>
    </g>
</svg>
