<svg xmlns="http://www.w3.org/2000/svg" width="52" height="52" viewBox="0 0 52 52">
    <defs>
        <filter id="f6vpk6siba">
            <feColorMatrix in="SourceGraphic" values="0 0 0 0 0.309804 0 0 0 0 0.372549 0 0 0 0 0.427451 0 0 0 0.240000 0"/>
        </filter>
    </defs>
    <g fill="none" fill-rule="evenodd">
        <g>
            <g>
                <g filter="url(#f6vpk6siba)" transform="translate(-932 -280) translate(930 278) translate(2 2)">
                    <path fill="#FFF" fill-opacity="0" d="M0 0H52V52H0z"/>
                    <g fill="#05D183" fill-rule="nonzero">
                        <path d="M43.699 0H3.1C1.388 0 0 1.388 0 3.101V43.7C0 45.41 1.388 46.8 3.101 46.8H43.7c1.713 0 3.101-1.389 3.101-3.101V3.1C46.8 1.388 45.412 0 43.699 0zM3.1 2.82H43.7c.156 0 .282.125.282.281V43.7c0 .155-.127.282-.282.282H3.1c-.155 0-.282-.127-.282-.282V3.1c0-.156.126-.282.282-.282z" transform="translate(2.6 2.6)"/>
                        <path d="M14.115 29.714H8.25c-.779 0-1.41.63-1.41 1.41v7.527c0 .779.631 1.41 1.41 1.41h5.864c.778 0 1.41-.631 1.41-1.41v-7.528c0-.778-.632-1.41-1.41-1.41zm-1.41 2.82v4.708H9.66v-4.709h3.045zM26.332 20.173h-5.864c-.779 0-1.41.63-1.41 1.41V38.65c0 .779.631 1.41 1.41 1.41h5.864c.778 0 1.41-.631 1.41-1.41V21.582c0-.778-.632-1.41-1.41-1.41zm-1.41 2.82v14.249h-3.045v-14.25h3.045zM38.549 6.738h-5.864c-.779 0-1.41.631-1.41 1.41V38.65c0 .779.631 1.41 1.41 1.41h5.864c.779 0 1.41-.631 1.41-1.41V8.147c0-.778-.631-1.41-1.41-1.41zm-1.41 2.82v27.684h-3.044V9.557h3.044zM17.966 6.738c.748 0 1.36.582 1.407 1.317l.003.093v2.468c0 .778-.631 1.41-1.41 1.41-.747 0-1.359-.582-1.406-1.318l-.003-.092V9.557H9.66v1.059c0 .747-.58 1.359-1.316 1.406l-.093.003c-.747 0-1.359-.581-1.407-1.317l-.003-.092V8.148c0-.748.582-1.36 1.317-1.407l.093-.003h9.715z" transform="translate(2.6 2.6)"/>
                        <path d="M13.109 6.738c.747 0 1.359.582 1.406 1.317l.003.093v9.806c0 .779-.63 1.41-1.41 1.41-.747 0-1.358-.582-1.406-1.317l-.003-.093V8.148c0-.779.631-1.41 1.41-1.41z" transform="translate(2.6 2.6)"/>
                        <path d="M14.98 16.876c.78 0 1.41.631 1.41 1.41 0 .747-.581 1.359-1.316 1.406l-.093.003h-3.744c-.779 0-1.41-.63-1.41-1.41 0-.747.582-1.358 1.317-1.406l.093-.003h3.744z" transform="translate(2.6 2.6)"/>
                    </g>
                </g>
            </g>
        </g>
    </g>
</svg>
