<svg xmlns="http://www.w3.org/2000/svg" width="52" height="52" viewBox="0 0 52 52">
    <defs>
        <filter id="zmobt1a5ya">
            <feColorMatrix in="SourceGraphic" values="0 0 0 0 0.309804 0 0 0 0 0.372549 0 0 0 0 0.427451 0 0 0 0.240000 0"/>
        </filter>
    </defs>
    <g fill="none" fill-rule="evenodd">
        <g>
            <g>
                <g filter="url(#zmobt1a5ya)" transform="translate(-552 -368) translate(550 366) translate(2 2)">
                    <path fill="#FFF" fill-opacity="0" d="M0 0H52V52H0z"/>
                    <g fill="#05D183" fill-rule="nonzero">
                        <path d="M20.388 0C13.636 0 8.163 5.473 8.163 12.224V23.45c0 6.751 5.473 12.225 12.225 12.225l.196-.002c6.675-.112 12.028-5.55 12.028-12.223V12.224C32.612 5.473 27.139 0 20.388 0zm0 2.68c5.27 0 9.543 4.273 9.543 9.544V23.45c0 5.21-4.179 9.456-9.38 9.543l-.175.001c-5.26 0-9.532-4.273-9.532-9.544V12.224c0-5.27 4.273-9.544 9.544-9.544z" transform="translate(5.2)"/>
                        <path d="M39.435 21.837c.74 0 1.34.6 1.34 1.34 0 11.406-9.123 20.66-20.387 20.66C9.124 43.837 0 34.583 0 23.177c0-.74.6-1.34 1.34-1.34.74 0 1.34.6 1.34 1.34 0 9.934 7.933 17.98 17.708 17.98 9.775 0 17.707-8.046 17.707-17.98 0-.74.6-1.34 1.34-1.34z" transform="translate(5.2)"/>
                        <path d="M20.388 41.156c.71 0 1.292.553 1.337 1.252l.003.089v8.163c0 .74-.6 1.34-1.34 1.34-.711 0-1.292-.553-1.338-1.252l-.003-.088v-8.163c0-.74.6-1.34 1.34-1.34z" transform="translate(5.2)"/>
                    </g>
                </g>
            </g>
        </g>
    </g>
</svg>
