<svg xmlns="http://www.w3.org/2000/svg" width="64" height="64" viewBox="0 0 64 64">
    <g fill="none">
        <circle cx="32" cy="32" r="32" fill="#1DA1F2"/>
        <path fill="#FFF" d="M26.144 48.88c14.192 0 21.952-11.76 21.952-21.952 0-.336 0-.672-.016-.992 1.504-1.088 2.816-2.448 3.856-4-1.376.608-2.864 1.024-4.432 1.216 1.6-.96 2.816-2.464 3.392-4.272-1.488.88-3.136 1.52-4.896 1.872-1.408-1.504-3.408-2.432-5.632-2.432-4.256 0-7.712 3.456-7.712 7.712 0 .608.064 1.2.208 1.76-6.416-.32-12.096-3.392-15.904-8.064-.656 1.136-1.04 2.464-1.04 3.872 0 2.672 1.36 5.04 3.44 6.416-1.264-.032-2.448-.384-3.488-.96v.096c0 3.744 2.656 6.848 6.192 7.568-.64.176-1.328.272-2.032.272-.496 0-.976-.048-1.456-.144.976 3.072 3.824 5.296 7.2 5.36-2.64 2.064-5.968 3.296-9.584 3.296-.624 0-1.232-.032-1.84-.112 3.376 2.208 7.44 3.488 11.792 3.488"/>
    </g>
</svg>
