<svg xmlns="http://www.w3.org/2000/svg" width="64" height="64" viewBox="0 0 64 64">
    <g fill="none">
        <path fill="#1877F2" d="M32 0C14.327 0 0 14.327 0 32c0 15.972 11.702 29.21 27 31.611V41.25h-8.125V32H27v-7.05c0-8.02 4.777-12.45 12.087-12.45 3.5 0 7.163.625 7.163.625V21h-4.035C38.24 21 37 23.467 37 26v6h8.875l-1.419 9.25H37v22.361c15.298-2.4 27-15.64 27-31.611C64 14.327 49.673 0 32 0z"/>
        <path fill="#FFF" d="M44.456 41.25L45.875 32H37v-6c0-2.53 1.24-5 5.215-5h4.035v-7.875s-3.662-.625-7.163-.625C31.777 12.5 27 16.93 27 24.95V32h-8.125v9.25H27v22.361c3.313.519 6.687.519 10 0V41.25h7.456z"/>
    </g>
</svg>
