<svg xmlns="http://www.w3.org/2000/svg" width="104" height="104" viewBox="0 0 104 104">
    <defs>
        <linearGradient id="wwiak4fo1a" x1="34.317%" x2="65.683%" y1="21.842%" y2="85.829%">
            <stop offset="0%" stop-color="#00FF42"/>
            <stop offset="100%" stop-color="#A3FF00"/>
        </linearGradient>
    </defs>
    <g fill="none" fill-rule="evenodd">
        <g>
            <g>
                <g>
                    <path fill="#FFF" fill-opacity="0" d="M0 0H104V104H0z" transform="translate(-568 -5756) translate(241 5636) translate(327 120)"/>
                    <g>
                        <g fill="url(#wwiak4fo1a)" opacity=".36" transform="translate(-568 -5756) translate(241 5636) translate(327 120) translate(11 1) translate(54.784 38.222)">
                            <path d="M24.957 64.977H7.939c-4.096 0-7.417-3.321-7.417-7.417V15.926C.522 7.13 7.652 0 16.448 0c8.795 0 15.926 7.13 15.926 15.926V57.56c0 4.096-3.321 7.417-7.417 7.417"/>
                        </g>
                        <path fill="#05D686" d="M48.191 0h-28.45c-4.791 0-8.83 3.571-9.417 8.326L.082 91.289c-.782 6.327 4.154 11.91 10.53 11.91h46.71c6.375 0 11.31-5.583 10.529-11.91L57.609 8.326C57.02 3.57 52.982 0 48.19 0" opacity=".57" transform="translate(-568 -5756) translate(241 5636) translate(327 120) translate(11 1)"/>
                        <path fill="#FFF" d="M33.966 57.332c-.703 0-1.274-.57-1.274-1.274V25.481c0-.703.57-1.274 1.274-1.274.703 0 1.274.57 1.274 1.274v30.577c0 .704-.57 1.274-1.274 1.274M26.213 51.01c-.703 0-1.274-.57-1.274-1.274V31.804c0-.704.57-1.274 1.274-1.274.703 0 1.274.57 1.274 1.274v17.932c0 .703-.57 1.274-1.274 1.274M17.99 45.739c-.704 0-1.275-.571-1.275-1.274v-7.39c0-.704.571-1.275 1.274-1.275.704 0 1.275.571 1.275 1.275v7.39c0 .703-.571 1.274-1.275 1.274M41.72 51.01c-.704 0-1.275-.57-1.275-1.274V31.804c0-.704.571-1.274 1.274-1.274.704 0 1.274.57 1.274 1.274v17.932c0 .703-.57 1.274-1.274 1.274M49.943 45.739c-.703 0-1.274-.571-1.274-1.274v-7.39c0-.704.57-1.275 1.274-1.275.703 0 1.274.571 1.274 1.275v7.39c0 .703-.57 1.274-1.274 1.274" transform="translate(-568 -5756) translate(241 5636) translate(327 120) translate(11 1)"/>
                    </g>
                </g>
            </g>
        </g>
    </g>
</svg>
