<svg xmlns="http://www.w3.org/2000/svg" width="64" height="64" viewBox="0 0 64 64">
    <defs>
        <linearGradient id="nflyies21a" x1="50%" x2="50%" y1="12.594%" y2="90.338%">
            <stop offset="0%" stop-color="#00D0B6"/>
            <stop offset="50.338%" stop-color="#00CF9C"/>
            <stop offset="100%" stop-color="#00CF80"/>
        </linearGradient>
    </defs>
    <g fill="none" fill-rule="evenodd">
        <g>
            <g>
                <g>
                    <g>
                        <g>
                            <path fill="#FFF" stroke="#EAEAEA" d="M32 .5c8.699 0 16.574 3.526 22.274 9.226 5.7 5.7 9.226 13.575 9.226 22.27h0l-.004.525c-.14 8.586-3.713 16.337-9.408 21.938C48.403 60.05 40.604 63.5 32.004 63.5h0l-.525-.004c-8.586-.14-16.337-3.713-21.938-9.408C3.95 48.403.5 40.604.5 32.004h0l.004-.525c.14-8.586 3.713-16.337 9.408-21.938C15.597 3.95 23.396.5 32 .5z" transform="translate(-387 -10182) translate(0 9971) translate(189 211) translate(169) translate(29)"/>
                            <path fill="url(#nflyies21a)" d="M20.632 43.235c-2.051-2.051-2.051-5.377 0-7.43l1.077-1.076 1.08-1.08c.966-.966.966-2.531 0-3.497l-1.08-1.08-1.077-1.077c-2.051-2.051-2.051-5.377 0-7.43 2.052-2.05 5.378-2.05 7.43 0l1.076 1.078 1.08 1.08c.966.966 2.531.966 3.497 0l1.08-1.08 1.077-1.077c2.052-2.052 5.378-2.052 7.43 0 2.051 2.052 2.051 5.378 0 7.43l-1.077 1.076-1.08 1.08c-.966.966-.966 2.532 0 3.497l1.08 1.08 1.077 1.077c2.051 2.052 2.051 5.378 0 7.43-2.052 2.051-5.378 2.051-7.43 0l-1.077-1.077-1.08-1.08c-.965-.966-2.53-.966-3.496 0l-1.08 1.08-1.077 1.076c-2.052 2.052-5.378 2.052-7.43 0zM32 47.245c2.86 2.86 6.927 3.774 10.561 2.748 1.715-.484 3.334-1.399 4.684-2.748 1.35-1.35 2.264-2.969 2.748-4.684 1.026-3.634.112-7.7-2.748-10.56V32c2.86-2.86 3.774-6.927 2.748-10.561-.484-1.715-1.399-3.334-2.748-4.684-1.35-1.35-2.969-2.264-4.684-2.748-3.634-1.026-7.7-.112-10.56 2.748H32c-2.86-2.86-6.927-3.774-10.561-2.748-1.715.484-3.334 1.399-4.684 2.748-1.35 1.35-2.264 2.969-2.748 4.684-1.026 3.634-.112 7.7 2.748 10.56-2.86 2.861-3.774 6.928-2.748 10.562.484 1.715 1.399 3.334 2.748 4.684 1.35 1.35 2.969 2.264 4.684 2.748 3.634 1.026 7.7.112 10.561-2.748z" transform="translate(-387 -10182) translate(0 9971) translate(189 211) translate(169) translate(29)"/>
                        </g>
                    </g>
                </g>
            </g>
        </g>
    </g>
</svg>
