<svg xmlns="http://www.w3.org/2000/svg" width="104" height="104" viewBox="0 0 104 104">
    <defs>
        <linearGradient id="3a34vtq34a" x1="61.37%" x2="38.629%" y1="-11.432%" y2="119.103%">
            <stop offset="0%" stop-color="#00FF42"/>
            <stop offset="100%" stop-color="#A3FF00"/>
        </linearGradient>
    </defs>
    <g fill="none" fill-rule="evenodd">
        <g>
            <g>
                <g transform="translate(-964 -5756) translate(241 5636) translate(723 120)">
                    <rect width="44" height="78" x="51" y="26" fill="#05D686" opacity=".57" rx="8"/>
                    <rect width="62" height="104" x="10" fill="url(#3a34vtq34a)" opacity=".36" rx="8"/>
                    <path fill="#FFF" fill-rule="nonzero" d="M87 32c1.105 0 2 .895 2 2v62c0 1.105-.895 2-2 2H59c-1.105 0-2-.895-2-2V34c0-1.105.895-2 2-2h28zm-.5 2.5h-27v61h27v-61z"/>
                    <path fill="#FFF" fill-rule="nonzero" d="M63 5.75c1.733 0 3.15 1.356 3.245 3.066L66.25 9v13h-2.5V9c0-.38-.282-.693-.648-.743L63 8.25H19c-.38 0-.693.282-.743.648L18.25 9v87c0 .38.282.693.648.743l.102.007h27.5v2.5H19c-1.733 0-3.15-1.356-3.245-3.066L15.75 96V9c0-1.733 1.356-3.15 3.066-3.245L19 5.75h44z"/>
                </g>
            </g>
        </g>
    </g>
</svg>
