<svg xmlns="http://www.w3.org/2000/svg" width="52" height="52" viewBox="0 0 52 52">
    <g fill="none" fill-rule="evenodd">
        <g>
            <g>
                <g>
                    <path fill="#FFF" fill-opacity="0" d="M0 0H52V52H0z" transform="translate(-552 -104) translate(550 102) translate(2 2)"/>
                    <g fill="#05D183" fill-rule="nonzero">
                        <path d="M24.217.403H23.05C10.512.403.348 10.567.348 23.106c0 12.538 10.164 22.703 22.702 22.703h1.167l.41-.004c2.465-.044 4.874-.486 7.164-1.298l.167-.06 8.065 4.232.087.042c.99.438 2.092-.419 1.88-1.507l-1.594-8.191.165-.168c3.963-4.109 6.267-9.566 6.356-15.397l.003-.342C46.92 10.567 36.755.403 24.217.403zm-1.167 2.72h1.167c11.035 0 19.982 8.947 19.982 19.983l-.003.32c-.082 5.419-2.345 10.475-6.213 14.155l-.074.076c-.284.316-.405.748-.323 1.17l1.191 6.125-6.095-3.199c-.35-.184-.764-.206-1.132-.06-2.323.917-4.797 1.395-7.333 1.395H23.05c-11.036 0-19.982-8.946-19.982-19.982S12.014 3.124 23.05 3.124z" transform="translate(-552 -104) translate(550 102) translate(2 2) translate(2.6 1.95)"/>
                        <path d="M17.29 19.271c.719 0 1.307.558 1.357 1.264l.003.097v4.53c0 .752-.609 1.36-1.36 1.36-.719 0-1.307-.556-1.357-1.262l-.003-.097v-4.531c0-.752.609-1.36 1.36-1.36zM29.977 19.271c.718 0 1.307.558 1.357 1.264l.003.097v4.53c0 .752-.609 1.36-1.36 1.36-.719 0-1.307-.556-1.357-1.262l-.004-.097v-4.531c0-.752.61-1.36 1.36-1.36z" transform="translate(-552 -104) translate(550 102) translate(2 2) translate(2.6 1.95)"/>
                    </g>
                </g>
            </g>
        </g>
    </g>
</svg>
