<svg xmlns="http://www.w3.org/2000/svg" width="52" height="52" viewBox="0 0 52 52">
    <g fill="none" fill-rule="evenodd">
        <g>
            <g>
                <g>
                    <path fill="#FFF" fill-opacity="0" d="M0 0H52V52H0z" transform="translate(-552 -280) translate(550 278) translate(2 2)"/>
                    <g fill="#05D183" fill-rule="nonzero">
                        <path d="M13.74 19.206c.72 0 1.31.56 1.356 1.27l.003.089v5.073c0 .75-.609 1.359-1.36 1.359-.72 0-1.31-.56-1.355-1.27l-.003-.089v-5.073c0-.75.608-1.359 1.359-1.359zM20.63 14.133c.72 0 1.31.56 1.356 1.27l.003.089v15.22c0 .75-.608 1.359-1.359 1.359-.72 0-1.31-.561-1.356-1.27l-.003-.09v-15.22c0-.75.609-1.358 1.36-1.358zM27.52 17.303c.721 0 1.31.561 1.357 1.27l.003.09v8.878c0 .75-.609 1.359-1.36 1.359-.72 0-1.31-.561-1.355-1.27l-.003-.09v-8.878c0-.75.608-1.359 1.359-1.359zM34.412 19.206c.72 0 1.31.56 1.356 1.27l.002.089v5.073c0 .75-.608 1.359-1.358 1.359-.721 0-1.31-.56-1.357-1.27l-.002-.089v-5.073c0-.75.608-1.359 1.359-1.359z" transform="translate(-552 -280) translate(550 278) translate(2 2) translate(1.95 1.95)"/>
                        <path d="M25.473 0h-2.795C10.153 0 0 10.153 0 22.678s10.153 22.678 22.678 22.678h2.795l.376-.003c2.497-.041 4.94-.491 7.257-1.32l.101-.039 8.055 4.228.076.037c.99.45 2.101-.409 1.89-1.5l-1.594-8.182.12-.12c3.992-4.116 6.312-9.596 6.395-15.451l.002-.318C48.151 10.153 37.998 0 25.473 0zm-2.795 2.718h2.795c11.024 0 19.96 8.936 19.96 19.96l-.002.299c-.077 5.42-2.338 10.48-6.206 14.16l-.07.07c-.287.316-.41.751-.328 1.174l1.191 6.119-6.088-3.195c-.35-.184-.763-.206-1.131-.06-2.32.916-4.792 1.393-7.326 1.393h-2.795c-11.024 0-19.96-8.936-19.96-19.96 0-11.024 8.936-19.96 19.96-19.96z" transform="translate(-552 -280) translate(550 278) translate(2 2) translate(1.95 1.95)"/>
                    </g>
                </g>
            </g>
        </g>
    </g>
</svg>
