<svg xmlns="http://www.w3.org/2000/svg" width="70" height="60" viewBox="0 0 70 60">
    <g fill="#05D183">
        <path d="M54.94 0c2.114 0 3.836 1.671 3.92 3.764l.002.158v16.293c0 .985-.798 1.783-1.782 1.783-.945 0-1.719-.736-1.779-1.666l-.004-.117V3.922c0-.175-.126-.321-.292-.351l-.064-.006H12.796c-.175 0-.32.126-.35.293l-.006.064v16.466c0 .985-.798 1.783-1.783 1.783-.945 0-1.718-.736-1.778-1.665l-.004-.118V3.922c0-2.113 1.67-3.836 3.764-3.919L12.796 0h42.145zM10.658 26.798c.945 0 1.718.735 1.779 1.665l.003.117V54.26c0 .174.127.32.293.35l.064.006H54.94c.175 0 .32-.126.35-.292l.007-.064V28.677c0-.984.798-1.782 1.782-1.782.945 0 1.719.735 1.779 1.665l.004.117V54.26c0 2.112-1.672 3.835-3.764 3.918l-.158.003H12.797c-2.113 0-3.836-1.671-3.919-3.764l-.003-.157V28.58c0-.984.798-1.782 1.783-1.782z" transform="translate(.7 .2)"/>
        <path d="M65.955 26.625c.985 0 1.783.798 1.783 1.782 0 .945-.736 1.719-1.666 1.779l-.117.004H1.783C.798 30.19 0 29.392 0 28.407c0-.945.736-1.718 1.665-1.779l.118-.003h64.172zM48.096 36.434c.985 0 1.783.798 1.783 1.782 0 .945-.736 1.719-1.665 1.779l-.118.004H19.423c-.984 0-1.782-.798-1.782-1.783 0-.945.735-1.718 1.665-1.779l.117-.003h28.673zM41.27 44.626c.984 0 1.782.798 1.782 1.782 0 .945-.736 1.719-1.666 1.779l-.117.004H19.423c-.984 0-1.782-.798-1.782-1.783 0-.945.735-1.718 1.665-1.779l.117-.003H41.27z" transform="translate(.7 .2)"/>
    </g>
</svg>
