<svg xmlns="http://www.w3.org/2000/svg" width="67" height="70" viewBox="0 0 67 70">
    <g fill="none" fill-rule="evenodd">
        <g fill="#05D183" fill-rule="nonzero">
            <g>
                <g>
                    <g>
                        <g>
                            <g>
                                <path d="M33.53.558h-1.615C14.555.558.481 14.63.481 31.993c0 17.36 14.074 31.435 31.434 31.435h1.616l.57-.006c3.41-.06 6.747-.672 9.917-1.796l.231-.085 11.167 5.86.12.058c1.37.607 2.897-.579 2.604-2.086l-2.208-11.341.23-.233c5.486-5.69 8.677-13.245 8.8-21.319l.004-.473C64.966 14.63 50.892.557 33.53.557zm-1.615 3.767h1.616c15.28 0 27.668 12.387 27.668 27.668l-.004.444c-.114 7.502-3.247 14.503-8.603 19.598l-.103.106c-.393.437-.56 1.036-.447 1.618l1.65 8.482-8.44-4.429c-.486-.255-1.058-.285-1.568-.084-3.216 1.27-6.64 1.932-10.153 1.932h-1.616c-15.28 0-27.666-12.387-27.666-27.667 0-15.281 12.386-27.668 27.666-27.668z" transform="translate(-280 -4812) translate(0 3786) translate(130 874) translate(0 110) translate(147 40) translate(3.6 2.7)"/>
                                <path d="M23.94 26.683c.995 0 1.81.772 1.879 1.75l.005.134v6.273c0 1.04-.844 1.884-1.884 1.884-.995 0-1.81-.772-1.879-1.75l-.005-.134v-6.273c0-1.04.844-1.884 1.884-1.884zM41.506 26.683c.995 0 1.81.772 1.88 1.75l.004.134v6.273c0 1.04-.843 1.884-1.884 1.884-.995 0-1.81-.772-1.879-1.75l-.004-.134v-6.273c0-1.04.843-1.884 1.883-1.884z" transform="translate(-280 -4812) translate(0 3786) translate(130 874) translate(0 110) translate(147 40) translate(3.6 2.7)"/>
                            </g>
                        </g>
                    </g>
                </g>
            </g>
        </g>
    </g>
</svg>
