<svg xmlns="http://www.w3.org/2000/svg" width="58" height="72" viewBox="0 0 58 72">
    <g fill="#05D183">
        <path d="M28.229 0c-9.348 0-16.926 7.578-16.926 16.926v15.542c0 9.348 7.578 16.926 16.926 16.926l.272-.002c9.243-.154 16.654-7.683 16.654-16.924V16.926C45.155 7.578 37.577 0 28.229 0zm0 3.711c7.298 0 13.215 5.917 13.215 13.215v15.542c0 7.214-5.787 13.093-12.99 13.213l-.24.002c-7.283 0-13.2-5.917-13.2-13.215V16.926c0-7.298 5.917-13.215 13.215-13.215z" transform="translate(.2)"/>
        <path d="M54.603 30.236c1.025 0 1.855.831 1.855 1.856 0 15.792-12.632 28.605-28.229 28.605C12.633 60.697 0 47.884 0 32.092c0-1.025.83-1.856 1.856-1.856 1.025 0 1.855.831 1.855 1.856 0 13.754 10.983 24.894 24.518 24.894s24.518-11.14 24.518-24.894c0-1.025.83-1.856 1.856-1.856z" transform="translate(.2)"/>
        <path d="M28.229 56.986c.984 0 1.789.765 1.852 1.733l.004.122v11.304c0 1.025-.831 1.855-1.856 1.855-.984 0-1.789-.765-1.852-1.733l-.004-.122V58.84c0-1.024.831-1.855 1.856-1.855z" transform="translate(.2)"/>
    </g>
</svg>
