<svg xmlns="http://www.w3.org/2000/svg" width="66" height="66" viewBox="0 0 66 66">
    <g fill="#05D183">
        <path d="M60.506 0H4.294C1.922 0 0 1.922 0 4.294v56.212C0 62.877 1.923 64.8 4.294 64.8h56.212c2.371 0 4.294-1.923 4.294-4.294V4.294C64.8 1.922 62.878 0 60.506 0zM4.294 3.904h56.212c.216 0 .39.174.39.39v56.212c0 .215-.175.39-.39.39H4.294c-.215 0-.39-.175-.39-.39V4.294c0-.216.174-.39.39-.39z" transform="translate(.6 .6)"/>
        <path d="M19.544 41.142h-8.12c-1.078 0-1.952.874-1.952 1.952v10.423c0 1.078.874 1.952 1.952 1.952h8.12c1.078 0 1.951-.874 1.951-1.952V43.094c0-1.078-.873-1.952-1.951-1.952zm-1.952 3.904v6.52h-4.216v-6.52h4.216zM36.46 27.932h-8.12c-1.078 0-1.952.873-1.952 1.951v23.634c0 1.078.874 1.952 1.952 1.952h8.12c1.078 0 1.951-.874 1.951-1.952V29.883c0-1.078-.873-1.951-1.951-1.951zm-1.953 3.903v19.73h-4.215v-19.73h4.215zM53.376 9.33h-8.12c-1.078 0-1.952.873-1.952 1.951v42.236c0 1.078.874 1.952 1.952 1.952h8.12c1.077 0 1.951-.874 1.951-1.952V11.281c0-1.078-.874-1.952-1.951-1.952zm-1.952 3.903v38.333h-4.216V13.233h4.216zM24.876 9.33c1.035 0 1.882.805 1.948 1.823l.004.129v3.417c0 1.078-.874 1.952-1.952 1.952-1.034 0-1.881-.806-1.947-1.824l-.004-.128v-1.466h-9.549v1.466c0 1.035-.805 1.881-1.823 1.947l-.128.005c-1.035 0-1.882-.806-1.948-1.824l-.004-.128v-3.417c0-1.035.805-1.882 1.823-1.948l.129-.004h13.451z" transform="translate(.6 .6)"/>
        <path d="M18.15 9.33c1.035 0 1.882.805 1.948 1.823l.004.129V24.86c0 1.078-.873 1.952-1.951 1.952-1.035 0-1.882-.806-1.948-1.824l-.004-.128V11.282c0-1.078.874-1.952 1.952-1.952z" transform="translate(.6 .6)"/>
        <path d="M20.743 23.367c1.078 0 1.952.874 1.952 1.952 0 1.034-.806 1.881-1.824 1.947l-.128.004h-5.184c-1.078 0-1.952-.873-1.952-1.951 0-1.035.805-1.882 1.823-1.948l.129-.004h5.184z" transform="translate(.6 .6)"/>
    </g>
</svg>
