<svg xmlns="http://www.w3.org/2000/svg" width="72" height="72" viewBox="0 0 72 72">
    <g fill="none" fill-rule="evenodd">
        <path d="M0 0h72v72H0z"/>
        <g stroke-width="2">
            <path fill="#08BF5B" stroke="#111" d="M54 31.844c0 3.02-.628 5.89-1.76 8.49C48.993 47.79 41.6 52.997 33 52.997c-11.598 0-21-9.47-21-21.153C12 20.16 21.402 10.69 33 10.69c8.62 0 16.026 5.231 19.262 12.713A21.222 21.222 0 0 1 54 31.843"/>
            <g stroke="#FFF" stroke-linecap="round" stroke-linejoin="round">
                <path d="M32.582 29.853l-4.92-5.985M32.582 29.853l4.921-5.985M32.582 29.724v9.88M27.4 34.663h10.365M27.4 29.724h10.365"/>
            </g>
            <g stroke="#111">
                <path fill="#FFF" d="M61 51c0 6.627-5.596 12-12.5 12C41.597 63 36 57.626 36 51c0-6.628 5.597-12 12.5-12C55.404 39 61 44.372 61 51z"/>
                <g stroke-linecap="round">
                    <path d="M45.286 50.657h7.143M48.857 47.229v6.857"/>
                </g>
            </g>
        </g>
    </g>
</svg>
