<svg xmlns="http://www.w3.org/2000/svg" width="72" height="72" viewBox="0 0 72 72">
    <g fill="none" fill-rule="evenodd">
        <path d="M0 0h72v72H0z"/>
        <g stroke="#262424" stroke-linecap="round" stroke-width="2">
            <path d="M11.978 20.847v-8.59c0-.225.139-.41.31-.41h8.69M61.978 20.847v-8.59c0-.225-.138-.41-.31-.41h-8.69M61.978 52.056v8.589c0 .226-.138.41-.31.41h-8.69M11.978 52.056v8.589c0 .226.139.41.31.41h8.69"/>
        </g>
        <path fill="#08BF5B" d="M20.044 33.338v1.274c4.21-.406 7.209-1.09 8.999-2.053 1.793-.96 4.12-3.14 6.982-6.531 2.819 3.313 5.158 5.49 7.019 6.53 1.86 1.044 4.86 1.857 9 2.442v-1.662c0-9.022-7.165-16.338-16-16.338-8.837 0-16 7.316-16 16.338z"/>
        <path stroke="#262424" stroke-width="2" d="M36 54.221c-8.8 0-16-7.262-16-16.138V33.36c0-8.875 7.2-16.139 16-16.139s16 7.264 16 16.14v4.722c0 8.876-7.2 16.138-16 16.138z"/>
        <path stroke="#262424" stroke-linecap="round" stroke-width="2" d="M32.416 42.595a4 4 0 0 0 8 0"/>
        <path fill="#262424" d="M40.043 36.501a1.5 1.5 0 0 0 3.001 0 1.5 1.5 0 0 0-3.001 0zM29.043 36.501a1.5 1.5 0 0 0 3.001 0 1.5 1.5 0 0 0-3.001 0z"/>
    </g>
</svg>
