<svg xmlns="http://www.w3.org/2000/svg" width="72" height="72" viewBox="0 0 72 72">
    <g fill="none" fill-rule="evenodd">
        <path d="M0 0h72v72H0z"/>
        <g stroke-width="2">
            <path fill="#08BF5B" stroke="#111" d="M60.5 28.5c0 9.664-7.835 17.499-17.5 17.499-9.664 0-17.5-7.835-17.5-17.5C25.5 18.835 33.336 11 43 11c9.665 0 17.5 7.835 17.5 17.5z"/>
            <path stroke="#FFF" stroke-linecap="round" d="M37.5 28.37L41.256 32l7.244-7"/>
        </g>
        <path fill="#FFF" d="M26.144 55.243c1.448-.741 1.675-.895 3.828-1.162 2.351-.292 10.53.626 12.665.618 1.91-.006 2.506-.27 3.434-.84 2.91-1.78 10.507-6.957 13.04-8.637 1.842-1.222 2.83-2.498 2.105-3.783-.783-1.388-3.01-1.401-4.995-.478-4.767 2.215-9.908 4.74-9.908 4.74"/>
        <path stroke="#111" stroke-width="2" d="M26.144 55.683c1.45-.763 1.676-.92 3.831-1.196 2.354-.3 10.541.644 12.678.636 1.911-.006 2.508-.278 3.437-.864 2.913-1.834 10.517-7.163 13.052-8.893 1.845-1.257 2.834-2.571 2.108-3.894-.784-1.43-3.014-1.443-5-.492-4.772 2.28-9.918 4.88-9.918 4.88-.796.361-1.467.541-2.013.541"/>
        <path fill="#FFF" d="M18.617 44.804s1.635-3.856 4.47-5.662c1.692-1.078 4.234-1.974 7.392-1.285 2.058.45 4.71 2.04 6.418 2.485 1.709.446 3.897.214 5.772.758 2.443.711 3.166 2.06 3.034 3.433-.134 1.385-1.226 2.228-4.073 1.993a67.79 67.79 0 0 0-5.534-.216c-2.133.014-3 .408-3 .408"/>
        <path stroke="#111" stroke-width="2" d="M18.617 44.987s1.65-3.955 4.51-5.806c1.708-1.106 4.274-2.025 7.46-1.318 2.077.462 4.753 2.092 6.477 2.549 1.724.457 3.932.218 5.825.777 2.465.729 3.195 2.112 3.061 3.52-.134 1.42-1.236 2.284-4.11 2.043a67.333 67.333 0 0 0-5.585-.222c-2.152.015-3.028.419-3.028.419"/>
        <path fill="#FFF" stroke="#111" stroke-linecap="round" stroke-linejoin="round" stroke-width="2" d="M16.325 42L10.5 47.203 23.675 61l5.825-5.203z"/>
    </g>
</svg>
