<svg xmlns="http://www.w3.org/2000/svg" width="17" height="17" viewBox="0 0 17 17">
    <g fill="none" fill-rule="evenodd">
        <path fill="#FFF" d="M-1181-1042H259V204h-1440z"/>
        <path fill="#262424" d="M-1181-80H259v284h-1440z"/>
        <path fill="#262424" stroke="#555" d="M-145-11.5a4.5 4.5 0 0 0-4.5 4.5v30a4.5 4.5 0 0 0 4.5 4.5H23.5A4.5 4.5 0 0 0 28 23V-7a4.5 4.5 0 0 0-4.5-4.5H-145z"/>
        <path fill="#D4D4D4" d="M13.123 5.99a.545.545 0 0 1 0 .77l-4.238 4.238a.545.545 0 0 1-.854-.108.824.824 0 0 1-.13-.105L3.878 6.759l-.058-.067a.545.545 0 0 1 .76-.76l.068.057L8.5 9.842l3.853-3.852a.545.545 0 0 1 .77 0z"/>
    </g>
</svg>
