<svg xmlns="http://www.w3.org/2000/svg" width="120" height="120" viewBox="0 0 120 120">
    <g fill="none" fill-rule="evenodd">
        <path d="M0 0h120v120H0z" opacity=".5"/>
        <g stroke-width="2">
            <path fill="#08BF5B" stroke="#111" d="M85 53.495c0 4.355-.898 8.495-2.515 12.242C77.847 76.486 67.286 83.995 55 83.995c-16.568 0-30-13.655-30-30.5s13.432-30.5 30-30.5c12.314 0 22.894 7.543 27.518 18.33A30.844 30.844 0 0 1 85 53.495"/>
            <g stroke="#FFF" stroke-linecap="round" stroke-linejoin="round">
                <path d="M54.403 50.625l-7.029-8.63M54.403 50.625l7.03-8.63M54.403 50.44v14.244M47 57.561h14.807M47 50.44h14.807"/>
            </g>
            <g stroke="#111">
                <path fill="#FFF" d="M95 80.5c0 9.664-7.835 17.499-17.5 17.499-9.664 0-17.5-7.835-17.5-17.5C60 70.835 67.836 63 77.5 63 87.166 63 95 70.835 95 80.5z"/>
                <g stroke-linecap="round">
                    <path d="M73 80h10M78 75v10"/>
                </g>
            </g>
        </g>
    </g>
</svg>
