<svg xmlns="http://www.w3.org/2000/svg" width="180" height="180" viewBox="0 0 180 180">
    <g fill="none" fill-rule="evenodd">
        <path d="M0 0h180v180H0z"/>
        <g stroke-width="2">
            <path stroke="#111" stroke-linecap="round" stroke-linejoin="round" d="M135 149.37V39.55c0-1.408-1.205-2.55-2.693-2.55H47.693C46.206 37 45 38.142 45 39.55v109.9c0 1.412 1.206 2.556 2.697 2.55 14.276-.052 70.229-.28 84.577-.08 1.503.02 2.726-1.128 2.726-2.55z"/>
            <g stroke-linecap="round" stroke-linejoin="round">
                <path stroke="#08BF5B" d="M59 69.15l3.415 3.629 6.585-7"/>
                <path stroke="#111" d="M83.802 64.458h37M83.802 73.74h16"/>
                <g>
                    <path stroke="#08BF5B" d="M59 98.149l3.415 3.63 6.585-7"/>
                    <path stroke="#111" d="M83.802 93.458h37M83.802 102.74h16"/>
                </g>
                <g>
                    <path stroke="#08BF5B" d="M59 126.149l3.415 3.63 6.585-7"/>
                    <path stroke="#111" d="M83.802 121.458h37M83.802 130.74h16"/>
                </g>
            </g>
            <path fill="#ECECEC" stroke="#ECECEC" d="M111.41 35.923c-4.273 0-8.454-1.087-12.332-2.952-2.21-1.063-5.347-2.139-8.827-2.139-3.48 0-6.618 1.076-8.828 2.139-3.878 1.865-8.06 2.952-12.333 2.952H69v9.113c0 1.544 1.203 2.796 2.688 2.796h37.126c1.484 0 2.687-1.252 2.687-2.796v-9.113h-.09z"/>
            <path fill="#08BF5B" stroke="#111" stroke-linecap="round" stroke-linejoin="round" d="M111.908 33.09c-4.323 0-8.554-1.086-12.477-2.951C97.196 29.076 94.02 28 90.5 28c-3.522 0-6.696 1.076-8.932 2.139-3.923 1.865-8.154 2.952-12.477 2.952H69v9.113C69 43.748 70.217 45 71.72 45h37.56c1.503 0 2.72-1.252 2.72-2.796V33.09h-.092z"/>
        </g>
    </g>
</svg>
