<svg xmlns="http://www.w3.org/2000/svg" width="120" height="120" viewBox="0 0 120 120">
    <g fill="none" fill-rule="evenodd">
        <path d="M0 0h120v120H0z" opacity=".5"/>
        <g stroke="#111" stroke-linecap="round" stroke-width="2">
            <path d="M89.505 96.709H29.5a2.993 2.993 0 0 1-2.997-2.99V52.71h66v41.01a2.993 2.993 0 0 1-2.997 2.99z"/>
            <path fill="#08BF5B" stroke-linejoin="round" d="M21.195 47.124l10.429-23.158c.259-.581.91-.966 1.636-.966h52.609c.728 0 1.38.387 1.638.97l10.355 23.184c.07.158.108.32.113.49.034 1.297.067 3.815.067 3.815 0 4.738-4.662 8.543-10.27 8.23-5.12-.282-8.99-4.12-8.99-8.512v-3.615h-.002v3.615c0 4.393-3.87 8.23-8.988 8.513-5.608.312-10.27-3.493-10.27-8.231v-3.897h-.002v3.897c0 4.557-4.312 8.25-9.63 8.25-5.318 0-9.63-3.693-9.63-8.25v-3.897h-.001v3.897c0 4.557-4.312 8.25-9.63 8.25-5.318 0-9.63-3.693-9.63-8.25l.08-3.815a1.31 1.31 0 0 1 .116-.52z"/>
            <path stroke-linejoin="round" d="M32.125 41.792h55"/>
        </g>
    </g>
</svg>
