<svg xmlns="http://www.w3.org/2000/svg" width="180" height="180" viewBox="0 0 180 180">
    <g fill="none" fill-rule="evenodd">
        <path d="M0 0h180v180H0z"/>
        <path fill="#08BF5B" d="M127.582 101H40.418A3.42 3.42 0 0 1 37 97.58V45.42A3.42 3.42 0 0 1 40.418 42h87.164A3.42 3.42 0 0 1 131 45.42v52.16a3.42 3.42 0 0 1-3.418 3.42"/>
        <g fill="#FFF">
            <path d="M65.607 66.522c0-2.013-1.398-3.553-3.3-3.553h-4.078v7.107h4.078c1.902 0 3.3-1.54 3.3-3.554m6.213 0c0 5.251-4.155 9.476-9.513 9.476h-4.078v7.756c0 .513-.41.93-.915.93h-4.383a.922.922 0 0 1-.915-.93V57.976c0-.513.41-.93.915-.93h9.376c5.358 0 9.513 4.225 9.513 9.476M88.943 72.49c0-3.001-1.994-4.883-4.746-4.883-2.751 0-4.745 1.882-4.745 4.884 0 3.002 1.994 4.883 4.745 4.883 2.752 0 4.746-1.881 4.746-4.883m5.982-9.51V82a.495.495 0 0 1-.495.496h-4.992a.495.495 0 0 1-.495-.496v-1.385c-1.316 1.521-3.27 2.442-5.942 2.442-5.224 0-9.53-4.603-9.53-10.567S77.776 61.924 83 61.924c2.672 0 4.626.92 5.942 2.441v-1.384c0-.274.221-.497.495-.497h4.992c.273 0 .495.223.495.497M113.495 62.438l-4.47 11.44-4.62-11.449a.802.802 0 0 0-.742-.505h-4.955a.489.489 0 0 0-.446.675l7.71 19.1-2.81 7.192a.488.488 0 0 0 .447.67h4.958a.803.803 0 0 0 .746-.515l10.332-26.453a.488.488 0 0 0-.447-.67h-4.958a.802.802 0 0 0-.745.515"/>
        </g>
        <g>
            <path fill="#FFF" d="M143.93 133.227l.189-.986c2.571-14.269-5.268-27.915-5.268-27.915-2.261-4.847-6.639-2.38-6.639-2.38-2.544-5.942-6.758-3.391-6.758-3.391l-2.585 1.383c-2.91-6.372-7.628-3.477-7.628-3.477l-3.66 2.18-6.833-11.037c-4.696-8.676-8.511-5.523-8.511-5.523-4.031 2.766-.241 8.366-.241 8.366 3.715 5.396 8.425 17.282 8.425 17.282-4.82 1.291-6.092 4.702-6.316 7.32-.125 1.472.095 2.954.54 4.363l2.85 9.008c.756 2.498 4.05 7.512 8.628 10.284 2.646 1.601 4.13 3.148 4.95 4.28"/>
            <path stroke="#111" stroke-width="2" d="M143.93 133.227l.189-.986c2.571-14.269-5.268-27.915-5.268-27.915-2.261-4.847-6.639-2.38-6.639-2.38-2.544-5.942-6.758-3.391-6.758-3.391l-2.585 1.383c-2.91-6.372-7.628-3.477-7.628-3.477l-3.66 2.18-6.833-11.037c-4.696-8.676-8.511-5.523-8.511-5.523-4.031 2.766-.241 8.366-.241 8.366 3.715 5.396 8.425 17.282 8.425 17.282-4.82 1.291-6.092 4.702-6.316 7.32-.125 1.472.095 2.954.54 4.363l2.85 9.008c.756 2.498 4.05 7.512 8.628 10.284 2.646 1.601 4.13 3.148 4.95 4.28"/>
            <path fill="#FFF" d="M108.005 119.186s-1.567-6.81-3.585-11.457"/>
            <path stroke="#111" stroke-linecap="round" stroke-width="2" d="M108.005 119.186s-1.567-6.81-3.585-11.457"/>
            <path fill="#FFF" d="M111.403 98.378s3.316 5.744 4.053 7.378"/>
            <path stroke="#262424" stroke-linecap="round" stroke-width="2" d="M111.403 98.378s3.316 5.744 4.053 7.378"/>
            <g>
                <path fill="#FFF" d="M122.87 99.938c.053.097 1.366 3.426 1.51 4.997"/>
                <path stroke="#111" stroke-linecap="round" stroke-width="2" d="M122.87 99.938c.053.097 1.366 3.426 1.51 4.997"/>
            </g>
            <g>
                <path fill="#FFF" d="M132.212 101.946s1.283 2.948 1.554 4.003"/>
                <path stroke="#111" stroke-linecap="round" stroke-width="2" d="M132.212 101.946s1.283 2.948 1.554 4.003"/>
            </g>
            <path stroke="#111" stroke-linecap="round" stroke-width="2" d="M148.464 142.173c-2.045-4.17-2.355-6.414-3.069-8.44a.768.768 0 0 0-.65-.513c-2.942-.284-18.502-1.184-30.018 9.997a.8.8 0 0 0-.17.902c.339.741 2.367 5.503 3.427 8.086.223.54.88.744 1.366.42 3.267-2.168 14.48-9.068 28.265-9.109.694-.002 1.155-.718.849-1.343z"/>
        </g>
    </g>
</svg>
