<svg xmlns="http://www.w3.org/2000/svg" width="72" height="72" viewBox="0 0 72 72">
    <g fill="none" fill-rule="evenodd">
        <path d="M0 0h72v72H0z"/>
        <g stroke="#262424" stroke-width="2">
            <path d="M52 65H20c-1.65 0-3-1.35-3-3V10c0-1.649 1.35-3 3-3h32c1.65 0 3 1.351 3 3v52c0 1.65-1.35 3-3 3z"/>
            <path stroke-linecap="round" d="M33 60.022h6"/>
        </g>
        <path fill="#08BF5B" d="M45.54 40.347H26.994a.74.74 0 0 1-.727-.754V28.101a.74.74 0 0 1 .727-.754H45.54a.74.74 0 0 1 .727.754v11.492a.74.74 0 0 1-.727.754"/>
        <g fill="#FFF">
            <path d="M32.315 32.56c0-.435-.298-.768-.702-.768h-.867v1.537h.867c.404 0 .702-.333.702-.768m1.32 0c0 1.136-.883 2.05-2.022 2.05h-.867v1.677a.198.198 0 0 1-.194.2h-.932a.198.198 0 0 1-.195-.2v-5.575c0-.111.087-.202.195-.202h1.993c1.14 0 2.023.914 2.023 2.05M37.276 33.852c0-.65-.424-1.056-1.009-1.056s-1.009.407-1.009 1.056.424 1.056 1.01 1.056c.584 0 1.008-.407 1.008-1.056m1.272-2.057v4.114c0 .059-.047.107-.105.107H37.38a.106.106 0 0 1-.105-.107v-.3c-.28.329-.695.528-1.263.528-1.11 0-2.027-.995-2.027-2.285s.916-2.286 2.027-2.286c.568 0 .983.2 1.263.528v-.3c0-.058.047-.106.105-.106h1.062c.058 0 .105.048.105.107M42.496 31.678l-.95 2.474-.982-2.476a.17.17 0 0 0-.158-.11h-1.054c-.073 0-.122.077-.095.146l1.64 4.131-.598 1.556c-.026.07.023.145.095.145h1.054a.17.17 0 0 0 .159-.112l2.197-5.72c.026-.07-.023-.146-.095-.146h-1.054a.17.17 0 0 0-.159.112"/>
        </g>
    </g>
</svg>
