<svg xmlns="http://www.w3.org/2000/svg" xmlns:xlink="http://www.w3.org/1999/xlink" width="72" height="72" viewBox="0 0 72 72">
    <defs>
        <path id="a" d="M0 0h20v12.658H0z"/>
    </defs>
    <g fill="none" fill-rule="evenodd">
        <path d="M0 0h72v72H0z"/>
        <path fill="#FFF" stroke="#262424" stroke-linecap="round" stroke-linejoin="round" stroke-width="2" d="M60.708 56H12.292A3.302 3.302 0 0 1 9 52.708V19.292A3.3 3.3 0 0 1 12.292 16h48.416A3.3 3.3 0 0 1 64 19.292v33.416A3.302 3.302 0 0 1 60.708 56z"/>
        <path stroke="#08BF5B" stroke-linecap="round" stroke-width="2" d="M16 42.5h10M16 49h20"/>
        <g transform="translate(37 23)">
            <mask id="b" fill="#fff">
                <use xlink:href="#a"/>
            </mask>
            <path fill="#08BF5B" d="M19.273 12.658H.727A.73.73 0 0 1 0 11.924V.734A.73.73 0 0 1 .727 0h18.546A.73.73 0 0 1 20 .734v11.19a.73.73 0 0 1-.727.734" mask="url(#b)"/>
        </g>
        <path fill="#FFF" d="M43.047 28.214c0-.436-.297-.769-.701-.769h-.867v1.537h.867c.404 0 .701-.333.701-.768m1.321 0c0 1.136-.883 2.05-2.022 2.05h-.867v1.677a.198.198 0 0 1-.195.2h-.932a.198.198 0 0 1-.194-.2v-5.575c0-.111.087-.202.194-.202h1.994c1.139 0 2.022.914 2.022 2.05M48.009 29.505c0-.65-.424-1.056-1.009-1.056s-1.009.407-1.009 1.056.424 1.056 1.009 1.056 1.009-.407 1.009-1.056m1.272-2.057v4.114c0 .059-.047.107-.105.107h-1.062a.106.106 0 0 1-.105-.107v-.3c-.28.329-.695.528-1.263.528-1.111 0-2.027-.995-2.027-2.285s.916-2.286 2.027-2.286c.568 0 .983.2 1.263.528v-.3c0-.058.047-.106.105-.106h1.062c.058 0 .105.048.105.107M53.229 27.33l-.95 2.475-.983-2.476a.17.17 0 0 0-.157-.11h-1.054c-.073 0-.122.077-.095.146l1.64 4.131-.598 1.556c-.027.07.023.145.095.145h1.054a.17.17 0 0 0 .159-.112l2.197-5.72c.026-.07-.023-.146-.096-.146h-1.054a.17.17 0 0 0-.158.112"/>
    </g>
</svg>
