<svg xmlns="http://www.w3.org/2000/svg" width="72" height="72" viewBox="0 0 72 72">
    <g fill="none" fill-rule="evenodd">
        <path d="M0 0h72v72H0z" opacity=".3"/>
        <path stroke="#111" stroke-width="2" d="M58 61H14a3 3 0 0 1-3-3V14a3 3 0 0 1 3-3h44a3 3 0 0 1 3 3v44a3 3 0 0 1-3 3z"/>
        <path fill="#08BF5B" d="M50.476 53.471h-29.01a2.995 2.995 0 0 1-2.995-2.995v-29.01a2.996 2.996 0 0 1 2.996-2.995h29.01a2.996 2.996 0 0 1 2.995 2.995v29.01a2.995 2.995 0 0 1-2.996 2.995"/>
        <g fill="#111">
            <path d="M41.148 30.763h4.183v-3.929h-4.183v3.929zm-1.716 1.965h7.866v-7.861h-8.116v7.861h.25zM27.148 30.763h4.183v-3.929h-4.183v3.929zm-1.716 1.965h7.866v-7.861h-8.116v7.861h.25zM35.432 32.728h1.716v-7.86h-1.966v7.86zM39.432 42.627h1.607V36.6h4.406v6.026h1.857v-7.86h-8.12v7.86zM27.148 44.667h4.183v-3.928h-4.183v3.928zm-1.966 1.967h8.116v-7.862h-8.116v7.862z"/>
            <path d="M37.415 44.583v-9.815H25.182v1.966h10.266v9.816h11.87v-1.967z"/>
        </g>
    </g>
</svg>
