<svg xmlns="http://www.w3.org/2000/svg" width="111" height="17" viewBox="0 0 111 17">
    <defs>
        <filter id="y3q432ms4a">
            <feColorMatrix in="SourceGraphic" values="0 0 0 0 1.000000 0 0 0 0 1.000000 0 0 0 0 1.000000 0 0 0 1.000000 0"/>
        </filter>
    </defs>
    <g fill="none" fill-rule="evenodd">
        <g>
            <g>
                <g>
                    <path fill="#FFF" fill-opacity="0" d="M0 0H111V17H0z" transform="translate(-20 -1477) translate(0 1387) translate(20 90)"/>
                    <g filter="url(#y3q432ms4a)" transform="translate(-20 -1477) translate(0 1387) translate(20 90)">
                        <g>
                            <path fill="#000" d="M10.756 3.4H9.179c-.242 0-.439.19-.439.425v9.531c0 .235.197.426.439.426h1.577c.242 0 .438-.19.438-.426v-9.53c0-.235-.196-.426-.438-.426M21.123 3.4h-1.577c-.243 0-.439.19-.439.425v5.663l-4.49-5.899c-.01-.015-.023-.03-.035-.043l-.003-.003-.026-.026-.008-.007-.023-.02-.012-.008-.022-.015-.014-.008-.023-.012-.014-.007-.025-.01-.014-.005-.026-.008-.015-.004-.026-.006-.018-.002-.023-.003-.023-.001-.015-.001h-1.577c-.242 0-.439.19-.439.425v9.531c0 .235.197.426.439.426h1.577c.242 0 .438-.19.438-.426v-5.66l4.497 5.906c.03.042.069.077.11.105l.006.004.027.015.012.007.021.01.021.009.014.004.03.01.005.001c.036.01.074.015.113.015h1.577c.242 0 .438-.19.438-.426v-9.53c0-.235-.196-.426-.438-.426M6.74 11.395H2.454v-7.57c0-.234-.196-.425-.438-.425H.438C.196 3.4 0 3.59 0 3.826v9.53c0 .115.047.218.122.295l.006.006.007.006c.078.073.185.119.303.119H6.74c.242 0 .438-.19.438-.426V11.82c0-.235-.196-.426-.438-.426M30.339 5.787c.241 0 .437-.191.437-.426V3.826c0-.235-.196-.426-.437-.426h-6.303c-.118 0-.225.046-.304.12l-.005.005-.007.007c-.075.077-.121.18-.121.294v9.53c0 .115.046.218.122.295l.006.006.006.006c.079.074.185.119.303.119h6.303c.241 0 .437-.19.437-.426V11.82c0-.235-.196-.426-.437-.426h-4.286v-1.61h4.286c.241 0 .437-.192.437-.427V7.824c0-.236-.196-.426-.437-.426h-4.286V5.787h4.286zM93.086.85L89.155 10.815 85.225.85 81.284.85 87.424 16.416 89.155 16.416 90.887 16.416 97.027.85zM56.993.85L53.315.85 53.315 12.84 53.315 16.416 56.993 16.416 63.207 16.416 63.207 12.84 56.993 12.84zM101.324 10.464l1.816-5.075 1.815 5.075h-3.631zM104.87.85h-3.463l-6.14 15.566h3.94l1.013-2.736h5.837l1.012 2.736h3.941L104.871.85zM75.994 11.541l-.043.051c-.04.05-.082.099-.125.145-.901.96-2.179 1.509-3.505 1.509-1.432 0-2.773-.62-3.681-1.7-.691-.822-1.072-1.86-1.072-2.923 0-1.062.38-2.1 1.072-2.922.908-1.08 2.25-1.7 3.68-1.7 1.199 0 2.345.44 3.23 1.237.143.13.284.278.444.469.706.838 1.08 1.846 1.08 2.916 0 1.07-.374 2.08-1.08 2.918m2.474-8.647C76.845 1.247 74.662.34 72.321.34c-2.566 0-4.97 1.11-6.597 3.045-1.239 1.473-1.92 3.333-1.92 5.238 0 1.485.413 2.942 1.182 4.21.218.36.464.704.738 1.03 1.627 1.934 4.03 3.044 6.597 3.044 2.521 0 4.9-1.08 6.524-2.96l.07-.088c1.24-1.476 1.923-3.335 1.923-5.236 0-1.902-.683-3.762-1.923-5.236-.156-.186-.302-.347-.447-.493M50.943 13.87l-2.917-2.322-.04.047c-.022.027-.046.054-.07.08l-.059.063c-.901.958-2.178 1.508-3.505 1.508-2.62 0-4.752-2.074-4.752-4.622C39.6 6.073 41.732 4 44.352 4c1.32 0 2.592.545 3.492 1.496.058.063.118.128.18.203l2.919-2.323-.066-.077C49.252 1.42 46.874.34 44.352.34c-4.696 0-8.517 3.716-8.517 8.283 0 4.568 3.82 8.284 8.517 8.284 2.522 0 4.9-1.08 6.525-2.96l.066-.077z"/>
                        </g>
                    </g>
                </g>
            </g>
        </g>
    </g>
</svg>
