<svg xmlns="http://www.w3.org/2000/svg" width="64" height="64" viewBox="0 0 64 64">
    <g fill="none" fill-rule="evenodd">
        <circle cx="32" cy="32" r="32" fill="#00B900"/>
        <g fill="#FFF">
            <path d="M14.25 0h-2.265c-.348 0-.63.275-.63.614v13.75c0 .34.282.614.63.614h2.265c.348 0 .63-.275.63-.614V.614c0-.34-.282-.614-.63-.614M29.111 0h-2.236c-.343 0-.621.275-.621.614v8.169L19.889.273C19.875.25 19.858.23 19.84.21c0-.002-.002-.003-.003-.005L19.8.17l-.012-.01c-.01-.01-.021-.02-.032-.028l-.017-.012-.032-.022-.019-.012-.034-.018-.019-.01L19.6.044l-.02-.007c-.012-.005-.025-.009-.037-.012L19.52.018 19.485.01 19.46.007l-.033-.004L19.394 0 19.373 0h-2.236c-.343 0-.62.275-.62.614v13.75c0 .34.277.614.62.614h2.236c.343 0 .621-.275.621-.614V6.198l6.373 8.52c.044.062.098.112.157.152l.007.005.038.023.018.01.03.014.029.012.02.008.042.013.009.002c.05.013.103.021.158.021h2.236c.343 0 .621-.275.621-.614V.614c0-.34-.278-.614-.62-.614M9.455 11.531H3.442V.614c0-.34-.275-.614-.614-.614H.615C.275 0 0 .275 0 .614v13.745c0 .165.065.315.172.425l.008.01.009.007c.11.107.26.172.425.172h8.841c.339 0 .614-.275.614-.614v-2.213c0-.34-.275-.615-.614-.615M41.244 3.443c.332 0 .6-.275.6-.614V.615c0-.34-.268-.615-.6-.615H32.6c-.162 0-.31.066-.417.173l-.007.007-.01.01C32.063.302 32 .45 32 .615v13.75c0 .165.064.314.168.425l.008.009.009.008c.108.106.254.172.415.172h8.644c.332 0 .6-.275.6-.615V12.15c0-.34-.268-.615-.6-.615h-5.879V9.21h5.88c.331 0 .6-.276.6-.615V6.382c0-.34-.269-.614-.6-.614h-5.88V3.443h5.88z" transform="translate(10.839 24.774)"/>
        </g>
    </g>
</svg>
