<svg xmlns="http://www.w3.org/2000/svg" width="66" height="66" viewBox="0 0 66 66">
    <g fill="#05D183">
        <path d="M59.777 0c2.401 0 4.358 1.898 4.452 4.276l.003.179V21.32c0 1.118-.906 2.025-2.025 2.025-1.073 0-1.952-.836-2.02-1.892l-.005-.133V4.455c0-.2-.143-.364-.332-.398l-.073-.007H4.455c-.199 0-.364.143-.398.332l-.007.073V21.32c0 1.118-.907 2.025-2.025 2.025-1.074 0-1.952-.836-2.02-1.892L0 21.32V4.455C0 2.055 1.898.098 4.276.004L4.455 0h55.322zM62.207 40.645c1.074 0 1.952.836 2.02 1.892l.005.133v16.865c0 2.401-1.898 4.358-4.276 4.452l-.179.003H4.455c-2.4 0-4.357-1.898-4.451-4.275L0 59.535V42.67c0-1.118.907-2.025 2.025-2.025 1.074 0 1.952.836 2.02 1.892l.005.133v16.865c0 .2.143.365.332.399l.073.006h55.322c.2 0 .364-.143.399-.332l.006-.073V42.67c0-1.118.907-2.025 2.025-2.025z" transform="translate(.6 .5)"/>
        <path d="M32.116 17.01c-8.275 0-14.985 6.71-14.985 14.986 0 8.275 6.71 14.985 14.985 14.985 8.276 0 14.985-6.71 14.985-14.985 0-8.277-6.709-14.985-14.985-14.985zm0 4.05c6.04 0 10.935 4.896 10.935 10.936 0 6.038-4.896 10.935-10.935 10.935-6.038 0-10.935-4.897-10.935-10.935 0-6.04 4.896-10.935 10.935-10.935z" transform="translate(.6 .5)"/>
    </g>
</svg>
