<svg xmlns="http://www.w3.org/2000/svg" width="69" height="69" viewBox="0 0 69 69">
    <g fill="#05D183">
        <path d="M19.024 26.593c.998 0 1.814.776 1.878 1.758l.004.123V35.5c0 1.039-.842 1.881-1.882 1.881-.997 0-1.814-.776-1.877-1.757l-.004-.124v-7.025c0-1.039.842-1.881 1.881-1.881zM28.565 19.568c.998 0 1.814.777 1.878 1.758l.004.124v21.074c0 1.04-.843 1.882-1.882 1.882-.998 0-1.814-.777-1.878-1.758l-.004-.124V21.45c0-1.04.843-1.882 1.882-1.882zM38.106 23.959c.997 0 1.814.776 1.877 1.758l.004.123v12.293c0 1.04-.842 1.882-1.881 1.882-.998 0-1.814-.777-1.878-1.758l-.004-.124V25.84c0-1.039.843-1.881 1.882-1.881zM47.647 26.593c.997 0 1.814.776 1.877 1.758l.004.123V35.5c0 1.039-.842 1.881-1.881 1.881-.998 0-1.814-.776-1.878-1.757l-.004-.124v-7.025c0-1.039.843-1.881 1.882-1.881z" transform="translate(.7 .7)"/>
        <path d="M35.271 0h-3.87C14.057 0 0 14.058 0 31.4s14.058 31.4 31.4 31.4h3.871l.52-.004c3.457-.057 6.839-.68 10.048-1.828l.14-.053 11.153 5.854.105.052c1.372.621 2.91-.566 2.616-2.077l-2.206-11.33.166-.167c5.527-5.697 8.74-13.285 8.855-21.393l.003-.44C66.671 14.058 52.613 0 35.271 0zm-3.87 3.763h3.87c15.264 0 27.637 12.373 27.637 27.637l-.003.414c-.107 7.506-3.237 14.51-8.594 19.606l-.096.098c-.397.438-.568 1.04-.454 1.625l1.649 8.472-8.43-4.424c-.485-.254-1.057-.285-1.566-.084-3.213 1.27-6.635 1.93-10.143 1.93h-3.87c-15.265 0-27.638-12.373-27.638-27.637 0-15.264 12.373-27.637 27.637-27.637z" transform="translate(.7 .7)"/>
    </g>
</svg>
