<svg xmlns="http://www.w3.org/2000/svg" width="66" height="65" viewBox="0 0 66 65">
    <g fill="#05D183">
        <path d="M32.074 24.44c1.074 0 1.952.836 2.02 1.892l.005.133v7.607c0 1.118-.906 2.025-2.025 2.025-1.074 0-1.952-.836-2.02-1.892l-.005-.133v-7.607c0-1.118.907-2.025 2.025-2.025zM41.423 37.899c.77-.81 2.053-.842 2.863-.072.81.771.843 2.053.072 2.863-2.775 2.917-7.341 4.655-12.283 4.655-4.944 0-9.51-1.738-12.284-4.655-.771-.81-.74-2.092.071-2.863.81-.77 2.092-.738 2.863.072 1.964 2.065 5.461 3.396 9.35 3.396 3.887 0 7.384-1.331 9.348-3.396zM19.924 18.652c1.074 0 1.952.835 2.02 1.891l.005.134v3.039c0 1.118-.906 2.025-2.025 2.025-1.074 0-1.952-.836-2.02-1.892l-.005-.133v-3.04c0-1.118.907-2.024 2.025-2.024zM44.224 18.652c1.074 0 1.952.835 2.02 1.891l.005.134v3.039c0 1.118-.906 2.025-2.025 2.025-1.074 0-1.952-.836-2.02-1.892l-.005-.133v-3.04c0-1.118.907-2.024 2.025-2.024zM13.26 0c1.119 0 2.026.907 2.026 2.025 0 1.074-.836 1.952-1.892 2.02l-.133.005H4.05v9.17c0 1.074-.836 1.952-1.892 2.02l-.133.005c-1.074 0-1.952-.836-2.02-1.892L0 13.22V2.025C0 .951.836.073 1.892.005L2.025 0h11.236zM62.207 0c1.074 0 1.953.836 2.021 1.892l.004.133V13.22c0 1.118-.906 2.025-2.025 2.025-1.073 0-1.952-.836-2.02-1.892l-.005-.133V4.05h-9.21c-1.075 0-1.953-.836-2.022-1.892l-.004-.133c0-1.074.836-1.952 1.892-2.02L50.971 0h11.236zM2.025 48.745c1.074 0 1.952.835 2.02 1.892l.005.133v9.17h9.21c1.074 0 1.953.835 2.021 1.892l.005.133c0 1.074-.836 1.952-1.892 2.02l-.133.005H2.025c-1.074 0-1.952-.836-2.02-1.892L0 61.965V50.77c0-1.118.907-2.025 2.025-2.025zM62.207 48.745c1.074 0 1.953.835 2.021 1.892l.004.133v11.195c0 1.074-.835 1.952-1.891 2.02l-.134.005H50.971c-1.118 0-2.025-.907-2.025-2.025 0-1.074.836-1.952 1.892-2.02l.133-.005h9.21l.001-9.17c0-1.074.836-1.952 1.892-2.02l.133-.005z" transform="translate(.6 .6)"/>
    </g>
</svg>
